<?xml version="1.0" encoding="UTF-8"?>
<svg xmlns="http://www.w3.org/2000/svg" version="1.1" viewBox="0 0 1000 500">
  <defs>
    <style>
      .cls-1 {
        stroke: #000;
        stroke-width: 2px;
      }

      .cls-1, .cls-2 {
        fill: none;
        stroke-miterlimit: 10;
      }

      .cls-3 {
        fill: #000;
        stroke-width: 0px;
      }

      .cls-2 {
        stroke: #e83544;
        stroke-width: 9px;
      }
    </style>
  </defs>
  <g id="TEXT">
    <g>
      <path class="cls-3" d="M88.1,420.6c-9.7,0-17.5-3.2-23.5-9.5s-9-14.8-9-25.3,3-19,8.9-25.3c5.9-6.3,13.7-9.5,23.4-9.5s14.8,2,20.2,5.9c5.4,3.9,8.4,9.1,9,15.7h-9.2c-.4-4.3-2.3-7.7-5.9-10.2-3.5-2.5-8.2-3.7-14-3.7s-12.5,2.4-16.8,7.1c-4.2,4.7-6.4,11.4-6.4,20.1s2.1,15.3,6.4,20c4.3,4.8,9.9,7.1,16.8,7.1s16.9-3.2,21.6-9.6v-10.2h-17.8v-8h26.4v34.3h-6.3l-2.3-7.1c-4.6,5.5-11.7,8.2-21.5,8.2Z"/>
      <path class="cls-3" d="M191.6,419.4h-9.6l-6.3-17.9c-1.1-3.2-3-5.8-5.6-7.8-2.6-2-5.7-3-9.1-3h-16.5v28.8h-8.9v-67.3h29.8c5.2,0,9.5.5,12.8,1.5s6,3.1,8.1,6.4c2.1,3.2,3.1,6.9,3.1,11s-1.3,8.5-4,11.7c-2.7,3.1-6.4,5.2-11.1,6.1v.2c4.7,1.5,8.2,5.6,10.7,12.2l6.7,18.3ZM144.4,382.6h19.9c5.5,0,9.6-.9,12-2.6,2.5-1.7,3.7-4.8,3.7-9,0-7.6-4.8-11.5-14.4-11.5h-21.3v23.1Z"/>
      <path class="cls-3" d="M233.6,420.6c-7.8,0-13.6-1.5-17.5-4.5-3.9-3-6.3-6.6-7.3-10.7-1-4.1-1.5-8.9-1.5-14.3v-38.9h8.9v38.8c0,8.8,1.5,14.7,4.5,17.4,3,2.8,7.3,4.2,13,4.2s10.1-1.4,13-4.2c3-2.8,4.5-8.6,4.5-17.4v-38.8h9v38.9c0,8.1-1,14.1-2.9,18-1.9,3.9-4.9,6.7-8.8,8.7-3.9,1.9-8.8,2.9-14.7,2.9Z"/>
      <path class="cls-3" d="M278.8,352.1h25.1c5.5,0,10.1.5,13.8,1.5,3.7,1,6.7,3.2,8.8,6.7,2.2,3.4,3.3,7.2,3.3,11.5,0,6.8-2.2,11.9-6.5,15.5-4.3,3.5-10.6,5.3-18.7,5.3h-16.9v26.9h-8.9v-67.3ZM287.7,384.5h17c5.7,0,9.8-1.1,12.2-3.2,2.4-2.1,3.6-5.2,3.6-9.3s-.7-5.1-2-7.2c-1.3-2.1-3.1-3.4-5.1-3.9s-5-.8-8.9-.8h-16.8v24.4Z"/>
      <path class="cls-3" d="M374.4,351c9.4,0,17.1,3.2,23.1,9.5,6,6.4,9,14.8,9,25.2s-3,18.9-9,25.2c-6,6.4-13.7,9.5-23.1,9.5s-17.2-3.2-23.2-9.6c-6-6.4-9-14.8-9-25.2s3-18.9,9-25.2c6-6.4,13.8-9.5,23.2-9.5ZM374.3,412.9c6.7,0,12.2-2.4,16.5-7.2,4.3-4.8,6.4-11.4,6.4-20s-2.1-15.2-6.4-20c-4.3-4.8-9.7-7.2-16.4-7.2s-12.3,2.4-16.6,7.2c-4.3,4.8-6.5,11.4-6.5,20s2.2,15.2,6.5,20,9.8,7.2,16.5,7.2Z"/>
      <path class="cls-3" d="M460.9,419.4h-9v-67.3h9v67.3Z"/>
      <path class="cls-3" d="M531.1,399.9c0,6.3-2.1,11.1-6.4,14.5-4.3,3.4-10.5,5-18.7,5h-25.2v-67.3h24c7.2,0,12.8,1.5,16.9,4.6,4.1,3.1,6.2,7.3,6.2,12.6s-3.2,11.3-9.7,14.4c4.3,1.1,7.6,3.1,9.8,6.1,2.2,3,3.2,6.3,3.2,10.1ZM489.7,380.3h15c4.9,0,8.6-.8,10.9-2.4,2.3-1.6,3.5-4.2,3.5-7.9s-1.1-5.8-3.4-7.5c-2.3-1.7-6.2-2.5-11.8-2.5h-14.1v20.2ZM489.7,411.4h16.2c10.6,0,16-3.9,16-11.6s-1.2-6.9-3.7-8.8-6.9-2.8-13.4-2.8h-15.1v23.1Z"/>
      <path class="cls-3" d="M602.5,419.4h-10.1l-7.8-20.5h-28.2l-7.4,20.5h-9.4l25.8-67.3h9.6l27.4,67.3ZM582,391.9l-11.8-31.2-11.3,31.2h23.1Z"/>
      <path class="cls-3" d="M623.7,419.4h-9v-67.3h9v67.3Z"/>
      <path class="cls-3" d="M690.9,419.4h-53.2v-8.4l41.8-50.9h-38v-8h48.2v8.4l-41.8,50.9h43v8Z"/>
      <path class="cls-3" d="M760,419.4h-10.1l-7.8-20.5h-28.2l-7.4,20.5h-9.4l25.8-67.3h9.6l27.4,67.3ZM739.5,391.9l-11.8-31.2-11.3,31.2h23.1Z"/>
      <path class="cls-3" d="M821.5,399.9c0,6.3-2.1,11.1-6.4,14.5-4.3,3.4-10.5,5-18.7,5h-25.2v-67.3h24c7.2,0,12.8,1.5,16.9,4.6,4.1,3.1,6.2,7.3,6.2,12.6s-3.2,11.3-9.7,14.4c4.3,1.1,7.6,3.1,9.8,6.1,2.2,3,3.2,6.3,3.2,10.1ZM780.1,380.3h15c4.9,0,8.6-.8,10.9-2.4,2.3-1.6,3.5-4.2,3.5-7.9s-1.1-5.8-3.4-7.5c-2.3-1.7-6.2-2.5-11.8-2.5h-14.1v20.2ZM780.1,411.4h16.2c10.6,0,16-3.9,16-11.6s-1.2-6.9-3.7-8.8c-2.5-1.9-6.9-2.8-13.4-2.8h-15.1v23.1Z"/>
      <path class="cls-3" d="M892.9,419.4h-10.1l-7.8-20.5h-28.2l-7.4,20.5h-9.4l25.8-67.3h9.6l27.4,67.3ZM872.4,391.9l-11.8-31.2-11.3,31.2h23.1Z"/>
      <path class="cls-3" d="M945.7,419.4h-41.6v-67.3h8.9v59.3h32.7v8Z"/>
    </g>
    <g>
      <path class="cls-3" d="M447.5,272.6h8.6c9.2,0,13.9,4.5,13.9,13.5s-4.6,13.7-13.9,13.7h-8.6v-27.2ZM451.1,296.6h5c3.9,0,6.6-.9,8.1-2.8,1.4-1.8,2.2-4.4,2.2-7.8s-.7-5.8-2.1-7.6-4.1-2.7-8.1-2.7h-5v20.7Z"/>
      <path class="cls-3" d="M494.3,299.8h-20.3v-27.2h19.6v3.2h-16v8.3h15v3.2h-15v9.2h16.7v3.2Z"/>
      <path class="cls-3" d="M508.7,300.3c-3.8,0-6.7-.9-8.6-2.6-1.9-1.7-2.9-3.9-3-6.6h3.5c.2,2,1,3.5,2.5,4.5,1.5,1,3.3,1.5,5.4,1.5s3.6-.4,4.9-1.2c1.2-.8,1.8-2,1.8-3.4s-.6-2.6-1.9-3.3c-1.3-.7-3.5-1.4-6.6-2-3.1-.7-5.3-1.6-6.7-2.8-1.4-1.2-2-2.7-2-4.7s.9-4,2.6-5.4,4.1-2.1,7-2.1,5.5.7,7.4,2.1c1.9,1.4,2.9,3.4,3,6h-3.5c-.4-3.3-2.6-4.9-6.8-4.9s-3.6.4-4.7,1.1c-1.1.8-1.7,1.8-1.7,3s.4,2,1.3,2.6c.9.6,2.5,1.1,5,1.7,2.4.5,4.3,1.1,5.8,1.6s2.6,1.3,3.7,2.4c1,1.1,1.5,2.6,1.5,4.4s-.9,4.3-2.8,5.8c-1.9,1.5-4.3,2.3-7.3,2.3Z"/>
      <path class="cls-3" d="M522.8,272.6h8.6c9.2,0,13.9,4.5,13.9,13.5s-4.6,13.7-13.9,13.7h-8.6v-27.2ZM526.4,296.6h5c3.9,0,6.6-.9,8.1-2.8,1.4-1.8,2.2-4.4,2.2-7.8s-.7-5.8-2.1-7.6-4.1-2.7-8.1-2.7h-5v20.7Z"/>
      <path class="cls-3" d="M569.6,299.8h-20.3v-27.2h19.6v3.2h-16v8.3h15v3.2h-15v9.2h16.7v3.2Z"/>
      <path class="cls-3" d="M594,299.8h-3.5v-21.4c-1.4.9-3.6,1.4-6.5,1.4v-2.7c4.3,0,6.7-1.6,7.3-4.9h2.7v27.7Z"/>
      <path class="cls-3" d="M613.9,285.5c3.8,1.7,5.7,4.1,5.7,7.1s-.8,4.1-2.5,5.6c-1.7,1.4-3.8,2.1-6.5,2.1s-4.8-.7-6.5-2.1c-1.7-1.4-2.5-3.3-2.5-5.6s1.9-5.3,5.7-7.1c-3.1-1.8-4.6-4-4.6-6.6s.7-3.6,2.2-4.8c1.5-1.3,3.4-1.9,5.7-1.9s4.3.6,5.7,1.9,2.2,2.9,2.2,4.8-1.5,4.9-4.6,6.6ZM615.9,292.6c0-1.2-.4-2.2-1.3-3-.9-.8-2.2-1.7-4.1-2.5-1.9.8-3.2,1.7-4.1,2.5-.9.8-1.3,1.9-1.3,3s.5,2.7,1.5,3.6c1,.9,2.3,1.3,3.9,1.3s2.9-.4,3.9-1.3c1-.9,1.5-2.1,1.5-3.6ZM610.5,284.1c2.9-1.3,4.3-3,4.3-5.2s-.4-2.2-1.1-2.9c-.8-.7-1.8-1.1-3.2-1.1s-2.4.4-3.1,1.1c-.8.7-1.1,1.7-1.1,2.9,0,2.2,1.4,3.9,4.3,5.2Z"/>
      <path class="cls-3" d="M625.4,285.1c1.8-2,3.9-3,6.2-3s4.2.8,5.8,2.5c1.6,1.7,2.3,3.8,2.3,6.3s-.8,4.8-2.3,6.6c-1.6,1.8-3.6,2.7-6.2,2.7s-5.2-1.1-6.9-3.4c-1.6-2.3-2.4-5.5-2.4-9.8,0-10,3.2-14.9,9.6-14.9s3.8.6,5.2,1.7c1.4,1.1,2.3,2.8,2.6,5.1h-3.6c-.3-2.7-1.8-4-4.3-4s-3,.9-4.1,2.6c-1,1.8-1.6,4.3-1.8,7.6ZM625.4,287.8c0,3.1.6,5.5,1.6,7.2,1,1.7,2.4,2.5,4.1,2.5s2.7-.6,3.6-1.8c.9-1.2,1.4-2.7,1.4-4.5s-.5-3.3-1.4-4.5c-.9-1.2-2.2-1.8-3.7-1.8s-3.8,1-5.6,2.9Z"/>
      <path class="cls-3" d="M654.6,299.8h-3.5v-21.4c-1.4.9-3.6,1.4-6.5,1.4v-2.7c4.3,0,6.7-1.6,7.3-4.9h2.7v27.7Z"/>
    </g>
  </g>
  <g id="FLAG">
    <path class="cls-1" d="M378.3,290.2V74.7s-6.7-1.8-6.7-8.9,8-8,13.3-8,14.2,1.9,14.2,8.4-1.7,6.6-7.8,7.8v216.2"/>
    <path class="cls-1" d="M421.2,321.7s-3.3-186.3-28.3-245.3c0,0,28,2,49.3-2s70.3-2,86.7,3.3,45.7,6.7,61,6,53.5-11.2,54-11.4c0,0-9.1,138.4,10.8,167.1,0,0-63.8,11.7-120.4-1s-80.6,2.9-116.6.2"/>
    <path class="cls-1" d="M408.8,304.7s-7.3-203.3-16-228.3"/>
    <path class="cls-2" d="M419.2,99.1s16.9,62.7,19.6,109.8c0,0,54.2-8.4,94.7,2.7s90.7,5.3,90.7,5.3c0,0-10.2-60-7.6-114.2,0,0-40,8-86.7-1.8s-64.9-9.3-110.7-1.8Z"/>
    <line class="cls-2" x1="526.7" y1="119.3" x2="493.8" y2="187.8"/>
    <line class="cls-2" x1="560.5" y1="196.9" x2="526.7" y2="117.8"/>
    <line class="cls-2" x1="508.1" y1="117.8" x2="544.2" y2="120.7"/>
    <line class="cls-2" x1="477.8" y1="187.8" x2="512.8" y2="192"/>
    <line class="cls-2" x1="538.9" y1="194.8" x2="573.8" y2="198.5"/>
    <polyline class="cls-2" points="507.6 159.2 525.8 182.7 545.5 161.8"/>
  </g>
</svg>