<?xml version="1.0" encoding="UTF-8"?>
<svg id="Capa_1" data-name="Capa 1" xmlns="http://www.w3.org/2000/svg" version="1.1" viewBox="0 0 402.2 275.1">
  <defs>
    <style>
      .cls-1 {
        fill: #2b0a50;
        stroke-width: 0px;
      }
    </style>
  </defs>
  <g id="tkalogo">
    <path id="Path_3" data-name="Path 3" class="cls-1" d="M365.1,228.8c.2.1.4.2.6.3.3,0,.5.2.8.3.3.4.6.8.8,1.3.8,1.4,1.9,3.9,3.3,7.4l3.9,8.7c-.7,1.8-1.5,3.5-2.4,5.1,0,.2-.3.4-.6.4-.4,0-.7-.2-1-.5-.6-.6-1.4-.9-2.2-1-.5,0-.9.3-1.3.6-.6.6-1,1.4-1,2.2,0,.4.2.8.4,1.1.4.5.9.8,1.5.9.7,0,1.1.2,1.2.2.7,0,1.3-.1,2-.3.4-.2.7-.4.9-.7.8-.8,1.4-1.8,1.9-2.8l2.4-5.7,3.5-8.5,1.5-4.1c.7-1.8,1.2-3,1.5-3.6.1-.2.2-.3.4-.4.4-.1.8-.2,1.3-.4.3,0,.6-.2.8-.3,0-.2,0-.3,0-.4,0-.3,0-.5,0-.8-.4,0-.9,0-1.6.2-.8.1-1.7.2-2.5.2h-1.1s-1.7-.1-1.7-.1c-.2,0-.5,0-.9,0,0,.2,0,.4,0,.5,0,.1,0,.2,0,.3v.3c0,0,.7.2.7.2.5,0,.9.1,1.4.2.3.1.5.3.7.5,0,.2.1.5.1.7,0,.2,0,.4,0,.6,0,.4-.7,2.2-1.9,5.3-1,2.6-1.5,4.1-1.6,4.2l-1.2-2.5c-.8-1.7-1.7-3.5-2.5-5.5l-1-2.1c-.1-.3-.2-.6-.3-.9,0-.2.2-.3.3-.3.2,0,.3,0,.5-.1.2,0,.4,0,.7-.1.2,0,.3,0,.5,0,0-.2,0-.6.1-1.2,0-.1-.2-.2-.3-.3l-3,.2h-1.1c-.8,0-1.8,0-3.1-.1-.2,0-.4,0-.6,0-.4,0-.8,0-1.2.1,0,.3.1.6.2.9M330.4,244.3c0,.3,0,.6,0,.8h.6c1.6-.1,2.9-.2,4-.2h2.3c1.3.1,2,.2,2.1.2.2,0,.3,0,.5,0,0-.3.2-.5.2-.8,0-.2,0-.3,0-.5-.4-.2-.8-.3-1.2-.4-.3,0-.7-.2-1-.3v-.3c-.1-.2-.2-.4-.2-.6v-3.2s0-6.1,0-6.1c0-.2.1-.4.1-.6v-.4c0-.1,0-.3,0-.4.3-.6.8-1.1,1.5-1.5.9-.6,1.9-.8,3-.8.8,0,1.6.2,2.3.7.6.4,1,1,1.2,1.7.2,1.4.3,2.8.2,4.1v1.2c0,0,0,4.3,0,4.3,0,.6,0,1.2-.1,1.7,0,.2-.1.3-.3.5,0,0-.2,0-.3,0-.8,0-1.5.1-2.3.3v1.3s.4,0,.4,0c1.4-.1,2.3-.2,2.8-.2h2.3c1.1,0,2.1.1,3.1.2h.4s1.5,0,1.5,0c0-.2,0-.3,0-.5,0-.3,0-.5-.2-.8l-.7-.2c-.7,0-1.4-.2-2.1-.6-.2-.2-.3-.7-.3-1.7v-1.9s0-2.1,0-2.1v-2.2s0-2.7,0-2.7v-.6c.6-.8,1.3-1.5,2.2-2,.7-.4,1.6-.7,2.4-.7,1,0,2,.5,2.6,1.3.3.5.5,1,.6,1.6.2.8.2,1.7.2,2.5v6c.1.8,0,1.5,0,2.3,0,.2-.2.4-.3.5-1,.4-1.6.6-1.8.7v.3c0,.3,0,.6.1.9,1.3-.1,2.9-.2,5.1-.2.7,0,1.4,0,2.2,0,.6,0,.9,0,1,0,.3,0,.6,0,.8-.1v-.4c0-.2,0-.4,0-.7-.2-.2-.5-.3-.8-.3-.5,0-1-.3-1.4-.5-.2-.2-.2-.5-.3-.8v-1.6c0-1.7,0-2.9,0-3.6v-3.4c0-1.8-.5-3.6-1.7-4.9-1.2-1.2-2.9-1.9-4.6-1.8-.8,0-1.5.1-2.3.3-.7.1-1.3.4-1.9.7-.9.6-1.8,1.3-2.5,2-.6-1-1.5-1.9-2.6-2.4-1-.5-2.1-.7-3.2-.7-1,0-2.1.2-3.1.5-1.2.5-2.3,1.3-3.3,2.1v-.4s0-.8,0-.8v-1.7c0,0,0-.3,0-.3h-1.2c-.5.7-1.2,1.3-1.9,1.7-1,.6-2.1.9-3.2,1.2-.4,0-.7.2-1,.2v.9c.9.2,1.7.5,2.4,1,.3.4.5,1,.4,1.5v2.8s0,2.2,0,2.2v1.2c0,2.5,0,3.7-.1,3.9,0,.1,0,.2-.2.3-.6.3-1.3.4-2,.5-.2,0-.3,0-.5.1,0,.2,0,.4-.1.6M322.7,232.9c-.2,0-.5,0-.9,0-.6,0-1,0-1.3,0h-4.8c0-1.3.5-2.5,1.3-3.5,1.1-1.4,3-1.7,4.4-.6.6.4,1.1,1,1.4,1.7.3.7.5,1.5.5,2.3h-.6M310.7,237.2c0,.9.2,1.8.5,2.6.3.9.7,1.7,1.2,2.4.5.8,1.2,1.4,2,2,.8.5,1.6.9,2.6,1.2.9.2,1.8.3,2.7.3,1.5,0,3.1-.3,4.5-.9,1.5-.7,2.8-1.8,3.9-3-.3-.3-.8-.6-1.3-1-.6.4-1.2.8-1.9,1.1-.6.2-1.2.4-1.8.5-.7,0-1.4.1-2.2.1l-1.2-.4c-.6-.2-1.2-.6-1.7-1-.5-.5-1-1-1.4-1.6-.4-.7-.7-1.4-.8-2.2-.2-.8-.3-1.6-.3-2.4,0-.2,0-.3,0-.5h4.1c.3,0,.9,0,1.7,0,2.2.1,3.6.2,4.3.2h2.3c0-.9-.2-1.9-.5-2.8-.3-.7-.7-1.4-1.2-2-.6-.6-1.2-1.2-1.9-1.7-.6-.4-1.3-.7-2-.9-1.1-.2-2.1-.3-3.2-.3-.8,0-1.5.2-2.3.4-.9.3-1.7.8-2.4,1.3-1,.8-1.8,1.7-2.5,2.7-.4.8-.8,1.6-1,2.4-.2,1.1-.3,2.2-.3,3.4M293.6,240.8c-1.1-1.6-1.6-3.4-1.5-5.3,0-1.1.2-2.1.5-3.1.3-.8.7-1.5,1.2-2.1.4-.4.8-.8,1.4-1,.6-.2,1.2-.3,1.8-.3,1,0,2,.3,2.8,1,.8.8,1.3,1.8,1.4,2.9.1.9.2,3.7.2,8.2s0,.4,0,.9c-.5.3-1.1.6-1.7.9-.5.2-1,.3-1.5.3-.3,0-.5,0-.8,0-1.5-.2-2.9-.9-3.8-2.1M287,236.2c0,1.6.3,3.1.9,4.6.7,1.5,1.8,2.8,3.2,3.6,1.3.7,2.8,1.1,4.2,1,.9,0,1.8-.1,2.7-.3.9-.3,1.8-.7,2.6-1.2.3-.2.6-.3.8-.5,0,.6,0,1.3,0,1.9,0,0,0,.2,0,.5.2,0,.3,0,.5,0,.3,0,.6-.2.8-.3,1.3-.6,2.7-.9,4.1-1,.6,0,1.2-.2,1.8-.3,0-.2.1-.4.1-.6,0-.2,0-.3-.1-.5-.3,0-.5,0-.8-.1-.6,0-1.3-.1-1.9-.3,0-.7,0-1.3,0-1.8v-1.6c0-.2,0-.4,0-.7,0-.6,0-1.3,0-2s0-1.3,0-1.7v-.5s0-1.2,0-1.2c0-.3,0-.6,0-.9,0-.1,0-.3,0-.5v-.8c0-.2,0-.3,0-.5,0-1.2,0-2.1,0-2.7v-1.3s0-2.2,0-2.2v-1.1s0-.6,0-.6v-1.1c0-1.7,0-2.8,0-3.2v-.7c0-.2,0-.5-.1-.7-.1,0-.2,0-.3,0-.3,0-.5,0-.8.2l-2.1.5-.7.2c-.8.2-1.6.4-2.5.4-.3,0-.7,0-1,.1v1c.4.2.8.3,1.3.3.5,0,.9.2,1.1.6.4.6.5,2.2.5,4.6v2.3c0,0,0,1.5,0,1.5v.5c-1.3-1-2.8-1.6-4.4-1.6h-1.2c-.9,0-1.8.2-2.7.5-.7.3-1.4.6-2,1-2.4,1.7-3.9,4.4-3.9,7.4M277.3,238.1c0,1,0,2.1-.2,3.1-.3.6-.8,1.1-1.3,1.5-.6.5-1.3.7-2,.7-.5,0-1-.2-1.3-.6-.4-.4-.6-1-.5-1.5,0-.6.1-1.2.4-1.7.5-.8,1.3-1.4,2.1-1.9.8-.6,1.8-1,2.7-1.4,0,.6,0,1.3,0,1.9M283.8,241.3l-.6,1c-.1,0-.3.1-.4.1-.2,0-.5-.1-.6-.3-.2-.4-.3-.8-.2-1.2v-3.3s0-3.5,0-3.5c0-1.5,0-3-.5-4.5-.3-.8-.9-1.5-1.7-1.9-.9-.4-1.9-.7-2.9-.6-1.5,0-3,.2-4.4.6-1,.4-2,.9-2.9,1.6-.9.7-1.7,1.5-2.3,2.4-.3.6-.5,1.4-.5,2.1,0,.3,0,.5.3.7.6,0,1.3-.3,1.8-.6.2-.1.6-.3,1.1-.5.4-.1.8-.4,1.2-.7.2-.3.2-.7.3-1.1,0-.6.2-1.2.5-1.8.3-.5.8-.8,1.3-1,.6-.3,1.3-.4,1.9-.4.6,0,1.1.2,1.5.6.6,1.2.8,2.6.7,3.9,0,.6,0,1.1,0,1.6l-5.2,2.2c-.9.4-1.4.6-1.6.7-.8.4-1.5.9-2.2,1.6-.4.4-.8.9-1,1.4-.2.5-.3.9-.3,1.4,0,.9.3,1.8,1,2.5.9.7,2.1,1,3.2.9,1.4,0,2.8-.2,4-.8,1.1-.5,2-1.4,2.6-2.5.3.9.9,1.8,1.6,2.5.6.5,1.4.7,2.1.7.7,0,1.5-.2,2-.7.7-.7,1.1-1.6,1.3-2.6h0c0-.3-.1-.4-.2-.5l-.5-.3h-.4ZM261.6,240.6c-.3.3-.6.6-.9.9-.4.3-.9.6-1.4.8-.7.2-1.4.3-2,.3-1.7,0-3.3-.8-4.3-2.1-1.3-1.6-2-3.6-1.9-5.7,0-1.7.5-3.4,1.6-4.7.9-1.1,2.2-1.7,3.5-1.7.5,0,1,.1,1.4.4.4.4.8.9,1,1.4.2.7.6,1.4,1.2,2,.4.4,1,.6,1.6.6.6,0,1.2-.2,1.6-.7.4-.5.6-1.1.6-1.8-.1-1-.6-1.8-1.4-2.3-1-.8-2.7-1.2-5.1-1.2-1.6,0-3.3.3-4.8.9-1.3.6-2.5,1.4-3.5,2.5-.9,1-1.6,2.1-2,3.3-.4,1-.6,2.1-.6,3.2,0,1,.2,1.9.5,2.8.3,1,.8,2,1.4,2.8.9,1,2,1.9,3.3,2.4,1.3.6,2.7.9,4.2.9,2,0,3.9-.5,5.6-1.6,1.3-.9,2.3-2.2,2.8-3.7-.2-.2-.5-.4-.8-.5-.2,0-.3-.2-.5-.3-.2.2-.4.5-.9,1M236.3,238.1c0,1,0,2.1-.2,3.1-.3.6-.8,1.1-1.3,1.5-.6.5-1.3.7-2,.7-.5,0-1-.2-1.3-.6-.4-.4-.6-1-.5-1.5,0-.6.1-1.2.4-1.7.5-.8,1.3-1.5,2.1-2,.9-.6,1.8-1,2.7-1.4,0,.6,0,1.3,0,1.9M242.8,241.3l-.6,1c-.1,0-.3.1-.4.1-.2,0-.5-.1-.6-.3-.2-.4-.3-.8-.2-1.2v-3.3s0-3.5,0-3.5c0-1.5,0-3-.5-4.5-.3-.8-.9-1.5-1.7-1.9-.9-.4-1.9-.7-2.9-.6-1.5,0-3,.2-4.4.6-1,.4-2,.9-2.9,1.6-.9.6-1.7,1.5-2.3,2.4-.3.6-.5,1.4-.5,2.1,0,.3,0,.5.3.7.6,0,1.3-.2,1.8-.6.2-.1.6-.3,1.1-.5.4-.1.8-.4,1.2-.7.2-.3.2-.7.3-1.1,0-.6.2-1.2.5-1.8.3-.5.8-.8,1.3-1,.6-.3,1.3-.4,1.9-.4.6,0,1.1.2,1.5.6.6,1.2.8,2.6.7,3.9,0,.6,0,1.1,0,1.6l-5.2,2.1c-.9.4-1.5.6-1.6.7-.8.4-1.5.9-2.2,1.6-.4.4-.8.9-1,1.4-.2.5-.3.9-.3,1.4,0,.9.3,1.8,1,2.5.9.7,2.1,1,3.2.9,1.4,0,2.8-.2,4-.8,1.1-.5,2-1.4,2.6-2.5.3.9.9,1.8,1.6,2.5.6.5,1.4.7,2.1.7.7,0,1.5-.2,2-.7.7-.7,1.1-1.6,1.3-2.6h0c0-.3-.1-.4-.2-.5l-.5-.3h-.4Z"/>
    <path id="Path_4" data-name="Path 4" class="cls-1" d="M211.7,230.6c.9-1.2,2.4-1.9,3.9-1.9.7,0,1.4.1,2,.5.6.3,1,.7,1.3,1.3.3.5.4,1,.4,1.5,0,.3-.2.5-.4.7-.3.1-.7.2-1,.2-3.6.2-5.7.3-6.4.3h-1c0-1,.5-1.9,1.1-2.7M222.4,233.7c0-1-.3-1.9-.8-2.8-.6-1-1.5-1.9-2.5-2.5-1-.5-2.1-.8-3.2-.7-1.1,0-2.2.2-3.2.6-.8.4-1.5.9-2.2,1.4-.6.5-1.1,1.2-1.5,1.9-.6,1-1,2-1.3,3.1-.2.8-.3,1.6-.3,2.4,0,1.8.4,3.5,1.2,5.1.8,1.3,2,2.4,3.4,3,.9.4,1.9.6,2.9.6.8,0,1.6,0,2.4-.2,1-.3,2-.8,3-1.4.9-.6,1.7-1.3,2.4-2.1,0-.1,0-.2,0-.3v-.9c-.1,0-1.6,1.3-1.6,1.3-.6.4-1.3.8-2,1.1-.6.2-1.3.3-1.9.3-1.3,0-2.6-.4-3.8-1.1-1-.7-1.9-1.7-2.3-2.9-.5-1-.8-2.1-.8-3.2v-1s0-.2,0-.2v-.2c0-.3,0-.6.2-.9.7,0,1.3,0,2,0h10.1c0,0,0-.4,0-.4ZM188.3,251.5c0-1.1.5-2.2,1.4-2.9,1.1-1,2.5-1.5,4-1.5.5,0,2,0,4.3.3.6,0,1.3.1,1.9.3.5.1,1.1.4,1.5.7.4.3.7.7.9,1.1.2.4.3.9.3,1.4,0,.9-.4,1.7-1,2.4-.8.9-1.9,1.6-3,1.9-1.3.4-2.8.7-4.2.7-1.7,0-3.5-.5-4.9-1.5-.9-.7-1.4-1.7-1.4-2.8M191.5,230c.7-1,1.8-1.5,3-1.5,1.2,0,2.3.6,3.1,1.5.9,1.3,1.4,2.9,1.3,4.5.1,1.5-.3,3.1-1.2,4.3-.7.9-1.9,1.4-3.1,1.4-.7,0-1.4-.2-2-.6-.7-.5-1.2-1.1-1.6-1.9-.4-1-.6-2.1-.6-3.2-.1-1.6.2-3.1,1-4.5M190.2,247.3c-1.4.6-2.6,1.5-3.5,2.6-.5.6-.8,1.3-.8,2.1,0,.7.3,1.4.8,2,.7.8,1.6,1.4,2.6,1.8,1.7.6,3.4.9,5.2.8,1.9,0,3.7-.3,5.4-.9,1.4-.5,2.6-1.3,3.5-2.4.7-.9,1.2-2,1.2-3.2,0-.9-.2-1.7-.7-2.5-.5-.8-1.2-1.5-2-1.9-1.2-.5-2.5-.7-3.8-.7-3.7-.1-6.3-.5-7.6-1.3-.5-.3-.8-.6-.8-.9s.2-.6.8-.9c1.1-.7,2.3-1,3.6-1,.4,0,.6,0,.7,0,1.2,0,2.3-.3,3.4-.9,1.1-.6,2-1.4,2.6-2.5.6-.9.9-2,.9-3.1,0-1.2-.4-2.3-.9-3.4.1,0,.3,0,.4,0,.6,0,1.1.2,1.7.4.6.2,1.3.3,2,.4.2,0,.4,0,.5-.2.1-.1.2-.3.2-.5,0-.5,0-1-.3-1.4-.2-.1-.5-.2-.8-.2-.2,0-.7,0-1.6.2s-1.5.2-1.7.2c-.3,0-.5,0-.8-.1-.1,0-.4-.2-1-.6-.6-.4-1.3-.8-2-1.1-.8-.3-1.7-.4-2.6-.4-1.9,0-3.8.6-5.1,2-1.3,1.3-2,3-2,4.8,0,2.3,1.2,4.4,3.1,5.5.4.2.7.4.9.6-.7.3-1.5.6-2.3.9-.7.2-1.3.5-1.8.9-.2.2-.3.6-.3.9,0,.4.2.8.4,1.1.6.6,1.3,1.1,2,1.6.9.4,1.5.6,1.6.7-.2.1-.6.3-1.1.6M177.7,243.8c-.9.3-1.9.4-2.8.4-1.7,0-3.4-.7-4.5-1.9-1.3-1.4-1.9-3.3-1.8-5.2-.1-2,.5-4,1.7-5.6,1-1.2,2.5-1.9,4.1-1.9,1.1,0,2.2.3,3.1.9.8.4,1.4,1.1,1.7,1.9.3,1.6.4,3.2.3,4.8,0,3,0,5,0,5.9-.5.4-1.1.7-1.7.8M178.5,229.4c-1.5-.6-3.1-.9-4.7-.9-.8,0-1.7.2-2.5.5-.7.2-1.3.5-1.9.9-.7.4-1.3.9-1.8,1.4-.7.8-1.2,1.8-1.6,2.8-.4,1.1-.6,2.3-.6,3.5,0,1.4.3,2.8.9,4,.6,1.3,1.5,2.3,2.7,3.1,1,.7,2.2,1.1,3.4,1.1,2.1,0,4.2-.5,6.1-1.4.4-.2.7-.3,1.1-.4v2c.4,0,.7,0,1.1-.1l3.1-.6c.5,0,.9-.2,1.4-.3,0-.1,0-.2,0-.3v-.4c-.3,0-.6,0-.8,0-.7,0-1.3,0-1.9-.4-.1-.1-.2-.7-.2-1.7v-4.9c0,0-.1-9.3-.1-9.3v-8.2c0-1.2,0-2.3,0-3.3h-1.1c-1.6.5-3.3.9-4.9,1,0,.2,0,.3,0,.5v.2h.5c.9.3,1.8.7,2.5,1.2.4.8.5,1.6.4,2.5v4.7s0,2.5,0,2.5v.6c-.2,0-.5-.2-.9-.4M152,230.6c.9-1.2,2.4-1.9,3.9-1.9.7,0,1.4.1,2,.5.6.3,1,.7,1.3,1.3.3.5.4,1,.4,1.5,0,.3-.2.5-.4.7-.3.1-.7.2-1,.2-3.6.2-5.7.3-6.4.3h-1c0-1,.5-1.9,1.1-2.7M162.7,233.7c0-1-.3-1.9-.8-2.8-.6-1-1.5-1.9-2.5-2.5-1-.5-2.1-.8-3.2-.7-1.1,0-2.2.2-3.2.6-.8.4-1.5.9-2.2,1.4-.6.5-1.1,1.2-1.5,1.9-.6,1-1,2-1.3,3.1-.2.8-.3,1.6-.3,2.4,0,1.8.4,3.5,1.2,5.1.8,1.4,2,2.4,3.4,3,.9.4,1.9.6,3,.6.8,0,1.6,0,2.4-.2,1-.3,2-.8,3-1.4.9-.6,1.7-1.3,2.4-2.1,0-.1,0-.2,0-.3v-.9c-.1,0-1.6,1.3-1.6,1.3-.6.4-1.3.8-2,1.1-.6.2-1.3.3-1.9.3-1.3,0-2.6-.4-3.8-1.1-1-.7-1.9-1.7-2.3-2.9-.5-1-.8-2.1-.8-3.2v-1s0-.2,0-.2v-.2c0-.3,0-.6.2-.9.7,0,1.3,0,2,0h10.1c0,0,0-.4,0-.4ZM138.8,219.5c.4.1.7.4,1,.7.2.3.3.7.2,1.1v2.5c0,0,0,5.1,0,5.1v5.1c0,0,0,4.9,0,4.9,0,2.4,0,3.8,0,4.3,0,.3,0,.5-.3.7-.5.2-1,.3-1.6.4-.5,0-1,.2-1.5.3,0,0-.1.2-.1.3,0,.1,0,.2.1.3.1.1.3.2.5.1l3.5-.2h2.8c0,0,2.2.2,2.2.2.1,0,.2,0,.3,0,0,0,.1-.2.1-.3,0-.1,0-.2-.2-.3-.5-.2-1-.3-1.5-.3-.9-.1-1.4-.3-1.6-.5-.2-.9-.3-1.8-.2-2.7,0,0,0-.8,0-2.1,0-2.3.1-9.2.1-21v-1.2h-1c-1.4.5-2.4.8-3.1,1-.5.1-.9.3-1.3.4v.5c.3.1.8.4,1.6.7M106.8,228.8c0,.2,0,.3,0,.5h.8c.4.2.9.3,1.3.5.2.2.4.5.6.8l3.6,7.2,4,8.5c.1,0,.3,0,.4,0,.2,0,.3,0,.5,0,.7-1.1,2.2-4.1,4.5-8.9.3.7.7,1.5,1,2.4,1.4,3.5,2.2,5.7,2.6,6.5.1,0,.3,0,.4,0,.1,0,.2,0,.3-.1.1-.1.2-.3.3-.5.1-.2.2-.5.4-.9.9-1.8,1.5-3.1,1.8-3.9l3.8-9.2c.4-.7.9-1.4,1.6-1.9.5-.3,1.1-.4,1.6-.5,0-.2,0-.3,0-.5,0,0,0-.2,0-.2,0,0-.1,0-.2-.1h-1.1c-.6,0-1,0-1.5,0s-1.1,0-1.7,0-.9,0-1,0h-1.7s-.3,0-.3,0c-.1.1-.2.3-.2.4,0,0,0,.2.1.3.4.1.8.2,1.2.3.6,0,1.2.3,1.7.6.2.2.4.5.4.8,0,.8-.2,1.6-.6,2.3-.6,1.4-1.1,2.6-1.5,3.6-.7,2-1.5,4-2.5,5.9-.4-.7-.9-2-1.5-3.8l-2.2-6c-.2-.7-.4-1.2-.4-1.3-.1-.4-.2-.8-.3-1.2,0-.2.1-.3.2-.4.7-.3,1.4-.5,2.1-.5.4,0,.7-.1,1.1-.3v-.7c-.1,0-.2,0-.3,0h-.4c-.1,0-.3,0-.5,0h-2.6s-.8,0-.8,0h-3.8c-.3,0-.5,0-.8.1,0,.1-.1.2-.1.4v.2c.4.2.9.4,1.3.5.5,0,.9.3,1.3.5.2.3.4.7.5,1.1.2.6.4,1.1.5,1.4l1.3,3.4c-1,2.4-2.2,4.8-3.5,7.1l-2.5-5.2c-1.2-2.5-2.1-4.3-2.6-5.5-.2-.5-.4-1-.6-1.5,0-.1,0-.3,0-.4,0-.3.1-.5.4-.7.6-.3,1.2-.4,1.8-.4.2-.1.3-.4.3-.6,0,0,0-.2,0-.3,0,0-.2,0-.3,0h-8.1c0,.1,0,.2,0,.3M92.3,243c-1.2-1.3-1.7-3.3-1.7-5.9,0-1.8.2-3.7,1-5.4.5-1.1,1.4-2,2.5-2.5.9-.4,1.9-.6,2.8-.7,1.2,0,2.4.4,3.3,1.1,1,.9,1.8,2,2.1,3.3.4,1.2.6,2.6.7,3.9,0,1.5-.3,3.1-.9,4.5-.5,1.2-1.3,2.1-2.4,2.8-.9.6-2,.9-3.1.9-1.7,0-3.3-.7-4.3-2M88.6,241.4c.7,1.3,1.7,2.3,3,3.1,1.5.9,3.2,1.4,4.9,1.4,2.6,0,5.1-.9,7-2.7,1.7-1.6,2.8-3.8,2.8-6.1,0-2.5-.9-4.8-2.6-6.6-1.7-1.8-4.1-2.8-6.6-2.7-1.6,0-3.2.3-4.7.9-1,.5-1.9,1.2-2.6,2-.8.9-1.4,1.9-1.8,3-.4,1-.6,2-.6,3.1,0,1.6.4,3.3,1.2,4.7M64.5,245v.3h2.6s4.6,0,4.6,0h2.2v-.4c0-.2-.3-.4-.5-.4-.1,0-.4-.1-.9-.2s-.8-.2-1.2-.3c-.2,0-.5-.1-.7-.3,0-.1-.1-.3-.1-.5,0-.6-.1-2.1-.1-4.5v-4.7c0-.5,0-1.1,0-1.8.8-.8,1.6-1.4,2.6-1.9.9-.4,1.8-.6,2.8-.6,1.1,0,2.1.3,2.9,1.1.7.7,1.1,2,1.1,3.8v1.7s0,1.1,0,1.1c0,2.6,0,4.3,0,4.9,0,.3,0,.5,0,.6,0,.3-.1.6-.3.9-.2.1-.4.3-.6.3-.3,0-.6.1-.8.1-.5,0-1.1.1-1.6.3,0,0-.1.2-.1.3v.5c1,0,1.9,0,2.9,0h2.7c0,0,2.8,0,2.8,0h.4c0-.2.1-.4.1-.5v-.2c-.7-.4-1.5-.7-2.4-.7-.2-.1-.4-.3-.6-.6-.1-.6-.2-1.3-.1-1.9,0-.6,0-1.2,0-1.7s0-.8,0-.9v-3.2c0-1.7,0-3.4-.4-5.1-.3-.9-.8-1.7-1.6-2.2-.9-.6-1.9-1-3-.9-.5,0-1,0-1.5.2-.8.2-1.6.5-2.4.9-.9.4-1.8,1-2.6,1.6-.2.2-.4.3-.6.4v-.4s0-1.4,0-1.4c0-.3,0-.8,0-1.4h-.7c-.5,1-1.2,1.9-2,2.6-.7.5-1.5.9-2.4,1.1v.8c.8,0,1.5.3,2.1.8.3.5.4,1.1.3,1.7v6.5c0,.4,0,.8,0,1.1v.8c0,.4,0,.8-.3,1.2-.5.3-1,.4-1.6.4-.4,0-.8.1-1.2.3,0,.1,0,.3,0,.4M46,245.3c.4,0,.9,0,1.6,0,1.1,0,2.1,0,3,0s1.3,0,2.1,0c0-.2,0-.4-.2-.6-.3-.2-.7-.3-1.1-.3-.4,0-.8-.2-1.1-.5-.4-1.1-.5-2.2-.4-3.3,0-1.8,0-3,0-3.5h.8c.4,0,.9,0,1.3.3.7.6,1.4,1.3,2,2,1.6,1.8,2.7,3,3.1,3.6.3.3.5.7.6,1.2,0,.1-.2.2-.4.2-.8.1-1.6.2-2.4.3,0,0-.2.1-.2.2v.2c0,.1,0,.2,0,.3.1,0,.3,0,.4,0,.2,0,.3,0,.5,0l5.9-.2h.4c.4,0,1.2,0,2.2.1v-.2c0-.1,0-.3,0-.4l-1-.2c-.6,0-1.2-.3-1.8-.6-.2-.1-.8-.8-1.9-2.1-.3-.3-.6-.7-.8-.9-.7-.9-1.9-2.1-3.4-3.8-.4-.5-.7-.8-.9-1,0-.1-.2-.3-.3-.4-.1-.1-.2-.2-.3-.4l.8-.7c.5-.4,1.1-1,1.8-1.6,1-1,2.1-1.8,3.4-2.5.6-.3,1.3-.5,2-.6l1-.2c0-.1,0-.3,0-.4v-.3c-1.1,0-2,0-3,0-1.6,0-3.6,0-5.8.1,0,.1,0,.3-.1.4v.2c.3,0,.5,0,.7.2.2,0,.3,0,.5.1.5,0,1,.2,1.4.5.2.2.2.4.3.6,0,.3-.3.7-.8,1.3-1.3,1.2-2.7,2.3-4.1,3.3-.4.3-.9.5-1.5.5h-.2c0-.4,0-.7,0-.9v-6.9c0,0,0-4.3,0-4.3v-2.5s0-1.7,0-1.7v-.9s0-1.8,0-1.8c0,0,0-.3,0-.6h-.6c-1.3.7-2.1,1.2-2.5,1.3-.7.3-1.4.5-2.1.6,0,.2,0,.3,0,.4v.3c.8,0,1.6.2,2.3.6.3.4.4,1,.3,1.5v3.2s0,3.7,0,3.7c0,.5,0,.9,0,1.4,0,.8,0,1.3,0,1.4v1.5s0,8.4,0,8.4c0,1,0,2-.2,2.9-.2.2-.5.4-1.2.4-.4,0-.7,0-1.1,0-.1,0-.2,0-.3.2v.6c.7,0,1.2,0,1.4,0"/>
    <path id="Path_5" data-name="Path 5" class="cls-1" d="M39.3,236.8c.5-1,1.1-1.8,1.8-2.6.2-.2.6-.4.9-.4.2,0,.4.1.5.3.2.2.3.4.2.7,0,.4,0,.8-.2,1.2-.2.4-.4.8-.7,1.2-.2.3-.5.6-.8.8-.4.3-.9.6-1.4.8-.4.2-.9.3-1.4.3.3-.8.6-1.5,1-2.2M40.4,239.2c.4-.1.7-.2,1.1-.4l1.2-.8c.4-.3.7-.7.9-1.1.3-.5.4-1,.4-1.6,0-.5-.2-1.1-.5-1.5-.3-.4-.7-.6-1.2-.6-.4,0-.7,0-1,.2-.4.2-.7.4-1,.7,0,0-.5.5-1.2,1.3l-1.1,1.6c-.4.6-.7,1.2-1,1.9-.2.5-.4,1.1-.5,1.6-.1.5-.2,1.1-.2,1.7,0,.9.2,1.8.7,2.5.3.4.8.7,1.3.7.8,0,1.6-.4,2.2-1,1-.8,1.7-1.9,2.1-3.2-.1,0-.3,0-.4,0h-.2c-.2.5-.4.9-.7,1.4-.2.3-.5.7-.8,1-.3.3-.6.5-.9.6-.2,0-.4.1-.6.1-.3,0-.6-.1-.8-.4-.3-.5-.5-1-.5-1.6,0-.9.2-1.8.5-2.6.9-.2,1.7-.4,2.2-.5M29.4,226.6c.1,0,.2,0,.3.1,0,0,0,.2,0,.3,0,.3-.1.6-.2.9l-.6,1.7-3.9,11.6c0,.1-.1.3-.2.4l-1,2.6c-.1.2-.2.5-.2.8,0,.1,0,.3.1.3.1,0,.3.1.4,0,.2,0,.3,0,.4-.1.2-.2.3-.4.3-.6.2-.6.7-1.6,1.3-3,.4-1,.9-1.9,1.4-2.8.9-1.3,1.8-2.5,2.8-3.7.5-.5,1-1,1.7-1.3.1,0,.3-.1.5-.1.2,0,.4,0,.6.3.2.3.3.7.2,1.1-.1,1.4-.4,2.8-.9,4.2-.5,1.7-1.2,3.2-2.1,4.7-.3.4-.6.6-.7.6-.2,0-.3,0-.4-.2-.1-.2-.3-.5-.5-.7-.1,0-.3-.1-.5-.1-.2,0-.4,0-.6.2-.1,0-.2.2-.2.4,0,.3.2.7.4.9.2.2.5.3.8.3.5,0,1-.2,1.4-.4.7-.5,1.4-1.1,1.9-1.8.8-1.1,1.5-2.3,1.9-3.6.5-1.2.8-2.5.8-3.9,0-.7-.1-1.3-.5-1.9-.3-.4-.7-.6-1.2-.6-.7,0-1.3.3-1.8.7-1.3,1.2-2.5,2.5-3.4,4-.2.4-.4.6-.6.8.4-1.3.8-2.6,1.3-3.7.5-1.3,1-2.5,1.3-3.8.2-.8.4-1.3.5-1.7l.8-2.4.4-1v-.3c0,0-.4,0-.4,0-.3,0-1.3,0-2.9.3v.3c.3.1.6.2.9.3M20,236.2l-2.1,5.1-.6,1.4c-.3.6-.5,1.3-.7,1.9,0,.2,0,.3.2.4.1.1.3.2.5.2.2,0,.5,0,.7-.1.4-.2.7-.4,1.1-.7.5-.3,1-.7,1.4-1.1.7-.7,1.3-1.5,2-2.3-.1-.1-.3-.2-.4-.3-.7.9-1.5,1.8-2.3,2.5-.3.3-.6.4-.9.5h-.2c0,0,0-.1,0-.2.6-1.5,1.1-2.5,1.3-3.1l2.3-5.6c.3,0,.5-.1.8-.1h.6c.5,0,1,0,1.5,0,.1-.2.2-.5.2-.8h-1.4s-.8,0-.8,0c0,0-.2,0-.5,0,0-.2.1-.5.2-.7.5-1,.9-2.1,1.2-3.2v-.2c-.2,0-.4,0-.6,0-.2,0-.5,0-.7,0-.1.2-.2.5-.3.8-.3.9-.6,1.6-.9,2.2-.1.3-.3.6-.5,1.1-.3,0-1.1,0-2.5,0-.1.2-.2.5-.3.7h1.1s1.3,0,1.3,0c-.2.5-.4,1.1-.7,1.7"/>
  </g>
  <g>
    <path class="cls-1" d="M182,72.1l-25.1,12.5c0,0-.1,0-.1.2v61.6c0,.1-.2.2-.3.2l-12.6-6.8c0,0,0,0,0-.2v-58.9c0-2.5,1.4-4.7,3.6-5.8l28.8-14.3c3.2-1.6,7.1-.3,8.7,2.9,1.6,3.2.3,7.1-2.9,8.7Z"/>
    <path class="cls-1" d="M295.6,71.4c0,2.2-1.2,4.2-3.1,5.3l-16.8,9.3c0,0,0,0,0,.2v46.1c0,0,0,.1,0,.2l-72.3,39.1c0,0-.1,0-.2,0l-45-24.3c0,0,0,0,0-.2v-13.2c0-.1.2-.2.3-.2l44.8,24.3c0,0,.1,0,.2,0l60.3-32.6c0,0,0,0,0-.2v-32.1c0-.1-.2-.2-.3-.2l-57.3,31.6c-.9.5-1.9.8-2.9.8s-2-.2-2.8-.7l-42.1-22.8c0,0,0,0,0-.2v-13.2c0-.1.1-.2.2-.2l44.7,24.2c0,0,.1,0,.2,0l73.6-40.6c.1,0,.1-.3,0-.3l-73.6-40c0,0-.1,0-.2,0l-74.5,40.3c-.1,0-.1.3,0,.3l10.8,5.8s0,0,0,0c0,0,.1,0,.2.1h0c1.8,1,3,3,3,5.2v55.4c0,.1-.2.2-.3.2l-11.6-6.3c0,0,0,0,0-.2v-45.4c0,0,0-.1,0-.2l-17.5-9.5c-1.4-.8-2.6-2-3.1-3.5-.9-2.9.4-5.8,2.8-7.2l87.5-47.3c1.8-1,3.9-1,5.7,0l86.5,47c1.9,1,3.1,3.1,3.1,5.2Z"/>
  </g>
</svg>