<?xml version="1.0" encoding="UTF-8"?>
<svg id="Capa_1" data-name="Capa 1" xmlns="http://www.w3.org/2000/svg" version="1.1" viewBox="0 0 2834.6 2834.6">
  <defs>
    <style>
      .cls-1 {
        fill: #0054a5;
        stroke-width: 0px;
      }
    </style>
  </defs>
  <g>
    <path class="cls-1" d="M2417.5,1247.6c-19.1-50.2-58.3-94.9-106.1-127.2-137.9-87.5-348-93.8-490-14.6-77.5,39.5-128.4,117.7-144.2,198.2-28.7,132.3-21.3,289.6,80.6,388.7,118.8,104.2,291.7,127.2,445.5,84.4,7.3-1.4,30.5-7.2,46.4-15.7l4.5-1.9c47.8-19.8,93.3-52.2,127.3-95.9,78.5-114.7,83.9-286.7,36.1-415.9M2167.2,1544.6c-5.4,25.1-22.3,51.1-48.9,60.5-42.4,18.6-99.7,13.5-138.9-8.3-32.9-23-37.1-61.5-41.4-98-3.2-71.9-8.4-148,11.7-213.7,15.8-40.7,59.3-51.2,98.7-54.2,41.3,0,81.6,6.3,107.1,39.6,15.9,23.9,14.9,55.2,18.1,83.4-1.1,59.4,4.2,130.2-6.4,190.7M910.1,1609.3c-35-2.1-74.3.9-108.2-3.2l1-365.9,2.1-3,105-1c1.1-59.4,2.1-123.1-1.1-177.2l-399.8-1.1-65.8,1.1c-1,55.2-1,119.8,0,176.1,36.1,1.1,70,0,105,3.3v354.4l-1,14.6-105,2.1c-2.2,57.3-2.2,114.7,0,172h467.8v-172s0,0,0,0ZM2087.5,1859.5c-44.5,63.7-100.7,125.1-162.1,173-2.2,3.3-8.6,2-10.6-1-26.6-16.6-55.2-30.2-80.7-46.9,34-40.6,66.9-81.3,92.4-126.3h-33c-26.4,38.7-54,79.3-89,113.6-46.7-18.7-89.1-35.4-136.8-48l-5.3-4c7.4-21.1,21.2-40.8,25.4-61.7h-28.6l-28.6,56.3c-62.5-13.5-131.5-20.9-195.1-25-3.2-9.4,1-22.9-3.2-31.3h-27.6c-2.2,12.5,3.2,22-3.2,32.4-65.8,3-129.4,10.4-190.9,23l-28.7-55.4c-10.5,0-22.3-2-29.6,1.1l26.5,61.5-3.2,3c-47.5,13.8-94.3,30.1-140,49.1l-4.2-2.1c-29.8-32.3-58.4-67.6-81.8-103.1-5.3-17.8-26.5-7.4-38.2-9.5,25.4,45.9,59.4,86.5,93.3,128.3-28.6,16.7-57.2,35.4-87,49.1-64.9-49.4-121.4-108.9-167.5-176.2-12.8-2-21.2-1.1-34,0,76.4,118.8,195.2,223,319.3,284.5,0,0,0-.9,1.1-.9s3,1.9.9,3c83.9,40.7,173,69.8,267.3,82.4,325.7,42.7,636.5-95.9,816.8-369-11.3-1.2-22.6-1.2-33.9,0M1645.3,1953.3l3.1-2.1c45.7,10.4,89.1,25,129.5,44.8-34,38.5-77.5,71.9-117.7,100-24.4,14.5-48.9,30.3-74.3,42.8l-45.5-19.8,3.1-7.2c38.3-51,72.2-103.2,101.9-158.5M1436.2,1922c60.5,1.1,121,7.4,177.1,20.9l1.1,3.2c-29.6,56.2-66.9,110.6-107.1,161.5-18.1,2.1-35-5.1-53-6.2l-18.1-2.1c-2.1-61.5-3.2-115.7,0-177.2M1231.6,1940.7c55.2-10.4,112.4-18.8,171.8-18.8l1.1,176.3c-22.3,5-46.7,5-67.9,10.4-43.5-51.2-79.5-106.5-110.2-163.9l5.3-4.1h0ZM1060.7,1997.1c41.5-19.9,84.9-34.6,129.4-45.9l4.3,1.1c30.7,57.3,68.9,111.5,107.1,165.7-14.7,8.4-32.9,13.4-47.7,21.9-71.7-35.4-137-82.7-193.1-139.7v-3h0ZM1197.6,2175.3c-89.1-23-171.9-62.6-248.3-116.7v-3.2c25.5-15.5,51-32.2,78.5-43.8,60.5,59.6,123,104.4,190.9,147.1-5.3,6.3-13.8,12.5-21.2,16.7M1591.1,2188.8c-112.4,24.1-237.6,25.1-350-2-2.1-5.2,5.3-6.3,8.5-9.4,98.7-63.7,252.4-63.7,349,5.1,3.1,6.3-5.3,4.3-7.5,6.3M1693,2159.7l-49.9,15.6c-8.5-4.2-15.9-10.4-23.4-16.7l2.1-3.2c67.9-39.5,129.4-87.5,187.8-144.9,28.6,11.4,56.3,27.2,81.8,44.8-59.5,47.1-128.4,78.3-198.5,104.4M747.8,978.6c26.2-36.3,54.9-70.8,85.9-103.2,27.5-26.1,53-51.1,82.8-69.9,27.6,17.7,58.3,32.5,84.8,49.1-32.9,40.5-66.8,81.3-91.2,124.9,7.4,3.3,21.2,2.2,31.9,0,26.5-38.5,55-77,89.1-111.5,45.5,16.7,90.1,34.4,136.8,46.9l4.1,4.1-26.4,60.4c11.7,2.2,19.1,1.1,30.7,0,9.5-17.6,16.9-37.4,27.5-55.2,61.6,13.6,126.3,20.9,192.1,22.9,8.4,7.4,2.1,23,5.3,32.3h28.6c3.1-10.2-1.1-21.8,3.1-31.1,61.6-3.2,126.3-9.5,185.9-24.1l5.2,1.1,28.6,54.1c9.6,0,22.3,2.2,29.7-2.1l-26.6-60.3,2.2-2.1c48.7-12.5,94.4-31.3,141.1-50,33,34.4,63.7,75,91.3,114.5,11.6,0,23.3,1.1,31.8-2.1-13.1-23.3-28.4-45.2-45.6-65.6-14-20-29.6-38.7-46.7-56.1v-5.4l74.3-42.7,10.7-4.2c64.6,48.9,121.1,107.6,167.5,174,12.7,0,23.4,4.4,34-.9-142.3-212.5-376.7-349.2-630.1-368.9l-1.1,2-2.2-2c-28.6-3.1-63.7-4.3-94.5-1.2-11.6-.9-25.4,0-39.2,1.2-254.5,19.7-488.9,150.1-635.4,372,10.6-1,23.3,3.2,34-1M1188.1,887l-4.2.9c-43.5-11.4-86-25-126.3-42.7l2-6.3c58.3-55.2,119.9-101.1,187.7-136.5,16,6.3,31.9,11.4,47.8,18.8l-3.1,8.1c-40.4,50.2-72.1,104.2-103.9,157.6M1399.1,915c-29.6,4.2-56.2-.9-86-3.2-28.5-4.2-64.7-7.2-93.3-16.7,30.8-57.1,66.9-112.4,110.3-163.4l67.9,9.3c3.1,54.1,1,116.7,1,174.1M1432,916.2c-2.1-55.4-1-116.8,0-174.2,21.3-3,44.5-6.3,65.8-9.4,41.4,52,81.8,105.4,109.4,162.5-57.4,13.9-116.1,21-175.2,21.1M1770.5,843.1c-41.5,17.6-83.9,34.3-129.5,43.9-32.9-55.3-68.9-110.5-109.3-163.9,14.9-8.2,33-14.4,48.9-22.7,69.1,34.4,135.8,83.3,192,139.4l-2,3.3ZM1634.6,664.9c89.1,23,172.9,62.5,249.3,116.7l-2.1,4.2-73.1,40.6h-5.4c-56.1-56.1-121.9-105.1-188.8-143.7,2.1-7.3,12.8-12.6,20.1-17.8M1592.2,654.4v2.2c-92.4,66.5-241.9,72.8-339.4,11.3-5.5-4.2-15.9-6.2-17.1-13.5,112.5-25.9,245-28,356.5,0M945.1,783.7c66.9-48.9,141.1-85.4,219.6-110.5,3.2-3.3,5.3-6.3,9.4-6.3v2.1c8.5,2,14.9-7.4,22.3-1.2,6.4,5.4,13.9,9.5,19.1,14.7-65.7,40.6-130.5,88.6-189.9,146.9-28.6-10.2-55.1-26-80.6-43.7v-2h0ZM1400.2,1617.5c-99.7,27.2-208,6.4-280.1-68.7-8.4-10.4-13.8-22.8-22.3-33.2l-143.2,1c-2.3,84.4-3.3,181.4,0,264.8l159-1,2.1-50.1c18.1,8.3,36.2,18.7,54.2,28.1,110.3,45.9,252.3,56.3,361.6,0,79.6-43.7,122.1-128.1,110.4-218.9-11.6-88.5-96.5-168.8-182.4-190.6l-256.8-74.1-19-9.4c-8.5-7.2-13.8-16.6-11.8-28.1,20.2-34.3,66.9-23.9,101.9-23,74.2,10.4,150.6,35.5,194.1,103.2,46.6,0,100.7.9,151.6-1.1,2.2-85.4-.8-160.5-2.1-247-47.7-1.1-106.1-1.1-153.8,1.1-2.1,12.4,2,30.1-3.3,42.6l-48.8-26.1c-116.7-49-280.1-54.1-386.2,22-69,49.9-90.1,139.7-72.1,218.9,13.7,74.9,85.9,130.2,154.8,156.2,94.4,33.3,193,57.4,288.6,89.7,9.5,4.2,22.2,13.7,20.1,25.1,0,9.3-9.6,14.6-16.9,18.6"/>
    <g>
      <path class="cls-1" d="M254.5,1932.3l-8.3-19.2,151.1-65,8.3,19.2-151.1,65Z"/>
      <path class="cls-1" d="M267.4,1853.3l-5.4-16.2,16.1-7.2-.2-.7c-14.5-7.4-27.1-16.4-32.4-32.3-8.1-24.4,4-40.5,33.5-50.3l73.3-24.3,6.5,19.6-70.7,23.5c-21.5,7.2-28.6,16.7-23.5,32,3.9,11.8,12.7,18,28.3,25.7l83.7-27.8,6.5,19.6-115.6,38.4Z"/>
      <path class="cls-1" d="M307.4,1696.2l-65.7,15.1,4.1,17.7-15.2,3.5-5.4-18.3-33.9,5.3-3.9-16.8,33.3-7.7-7.4-32.2,16.4-3.8,7.4,32.2,66-15.2c14.5-3.3,21.8-10,18.7-23.6-1-4.2-3.8-9.3-6.3-12.8l14.3-7.4c3.8,6.1,7.8,13.6,9.5,21,5.8,25.3-8.2,37.5-31.8,43Z"/>
      <path class="cls-1" d="M269.8,1636.3c-39.3,5.6-67.2-17.4-71.2-45.2-4.4-30.8,15.3-51.3,49.8-56.2,4.3-.6,8.7-.9,11.7-.7l11.5,81.2c25.3-5.1,39.7-23.1,36.4-46.1-1.6-11.6-6.7-20.6-13.9-28.6l12.4-9.2c8.4,9.6,15.8,21.6,18.2,38.1,4.6,32.2-15.3,61.1-54.9,66.7ZM248,1553.4c-24.2,3.4-35.8,16.2-33.1,35,2.4,17,18.2,30.2,42.2,29.3l-9.1-64.3Z"/>
      <path class="cls-1" d="M192.9,1509.1l-.9-17,22.1-2.9v-.7c-15.9-7.7-26.3-19.6-27-33.3-.3-5.4.2-9.2,1.8-13.1l18.3,2.9c-1.1,4.3-1.6,7-1.4,11.9.5,10.3,8.6,22.2,29.6,29.3l78.1-4.1,1.1,20.6-121.7,6.4Z"/>
      <path class="cls-1" d="M189,1418.5l.7-17,17.6-1v-.7c-10.9-12.1-19.6-24.9-18.9-41.7,1-25.7,18-36.5,49.1-35.3l77.1,3.1-.8,20.6-74.5-3c-22.7-.9-32.7,5.6-33.3,21.7-.5,12.4,5.5,21.3,17.4,34l88.2,3.5-.8,20.6-121.8-4.9Z"/>
      <path class="cls-1" d="M285.5,1298.2c-26.2-4-35.9-28.6-33.8-80.8-15.5-2.3-31.2.6-34.2,20.3-2.1,13.9,2.6,27.5,7.5,37.9l-15.2,5.9c-5.6-12.2-11.5-30.4-8.6-49.7,4.4-29.4,25.9-38.9,55.9-34.3l73.9,11.2-2.5,16.8-14.7-.5v.7c7.7,12.9,13.5,27.5,11.2,42.5-3.1,20.2-17.9,33.4-39.6,30.1ZM298.6,1224.5l-33.5-5.1c-1.3,41.1,6.6,56.3,22,58.6,13.7,2.1,20.7-6.4,22.5-18.2,1.8-11.6-2.4-22.1-11-35.3Z"/>
      <path class="cls-1" d="M301.6,1169.1l-65.5-15.8-4.2,17.6-15.2-3.7,3.3-18.8-32.6-10.4,4-16.7,33.2,8,7.7-32.1,16.3,3.9-7.7,32.1,65.9,15.9c14.5,3.5,24,.8,27.3-12.8,1-4.2.7-10,0-14.3l16.1-.2c.7,7.2.9,15.6-.9,23-6.1,25.2-24.1,29.9-47.7,24.2Z"/>
      <path class="cls-1" d="M203.2,1060.8c-7.7-2.4-10.9-9.9-8.5-17.5,2.4-7.7,9.2-12.1,16.9-9.7,7.4,2.3,10.9,9.9,8.5,17.5-2.4,7.7-9.5,12-16.9,9.7ZM241,1068.5l6.1-19.7,116.5,35.8-6.1,19.7-116.5-35.8Z"/>
      <path class="cls-1" d="M313.7,1037.6c-37.7-15.2-49.6-48.6-38.4-76.3,11.1-27.7,42.8-43.7,80.5-28.5,37.4,15,49.3,48.5,38.1,76.2-11.1,27.7-42.8,43.7-80.2,28.6ZM347.9,952.6c-25.9-10.4-48.8-4.3-56.6,15.1-7.8,19.4,4.5,39.7,30.4,50.1s48.5,4.2,56.4-15.2c7.8-19.4-4.2-39.6-30.1-50Z"/>
      <path class="cls-1" d="M315.2,877.1l8.1-15,16.3,6.9.3-.6c-4.5-15.7-6.6-31,1.4-45.7,12.2-22.6,32.3-24.8,59.6-10l67.8,36.8-9.8,18.1-65.5-35.6c-19.9-10.8-31.8-9.4-39.5,4.7-5.9,10.9-4.5,21.6.6,38.2l77.5,42.1-9.8,18.1-107.1-58.1Z"/>
      <path class="cls-1" d="M454.9,811.9c-21.8-15.2-19.6-41.5,5.4-87.4-12.9-8.9-28.3-13.3-39.6,3.1-8.1,11.6-9.8,25.8-10,37.3l-16.2-1.5c.4-13.4,3.1-32.3,14.3-48.4,17-24.4,40.4-23.4,65.3-6.1l61.4,42.7-9.7,14-13-6.9-.4.6c1.3,15,0,30.7-8.6,43.1-11.7,16.7-30.8,22.1-48.8,9.5ZM499.2,751.5l-27.8-19.3c-19.3,36.3-19,53.4-6.2,62.3,11.4,7.9,21.4,3.4,28.2-6.4,6.7-9.7,7.6-20.9,5.8-36.5Z"/>
      <path class="cls-1" d="M536.8,711.4l-119.1-97.8,13.1-15.9,120.2,98.8c4.9,4,8.5,3.5,10.5,1.2.8-.9,1.4-1.7,2.5-3.8l13.9,7.8c-1,2.9-2.6,6.2-6,10.4-9.8,11.9-21.5,10.6-35.1-.6Z"/>
      <path class="cls-1" d="M560.8,593.1c-35.7-38.7-36.1-81.9-5.7-109.9s73.4-24.1,109.1,14.6c35.7,38.7,36.9,82.8,6.5,110.8-30.4,28-74.2,23.3-109.9-15.5ZM648.3,512.4c-27.8-30.1-59.1-35.6-80.7-15.7-21.6,19.9-18.7,51.6,9.1,81.7,27.8,30.1,59.9,36.5,81.5,16.6,21.6-19.9,17.9-52.5-9.9-82.6Z"/>
      <path class="cls-1" d="M668.4,447l13.7-10.2,14.6,16.8.6-.4c-2.4-17.5,1.8-32.7,12.8-40.9,4.3-3.2,7.8-4.9,11.9-5.7l7.7,16.8c-4.2,1.4-6.8,2.5-10.7,5.4-8.3,6.1-13.7,19.4-8,40.9l46.7,62.8-16.6,12.3-72.7-97.8Z"/>
      <path class="cls-1" d="M807.8,523.9c-5.5-8.9-5-20.7.8-32.8l-.5-.9c-7.3,0-14.7-3.1-19.7-11.3-5.3-8.6-3.5-19.2-.4-26.3l-.5-.9c-10.2-1.2-23-7.2-30.6-19.6-14-22.7-4.9-48,16.2-60.9,5.7-3.5,11.6-5.6,16.2-6.4l36.2-22.3,8.3,13.5-21.3,13.1c7.8,1.7,16.1,7.3,21.6,16.2,13.7,22.2,5.3,46.3-15.9,59.4-5,3.1-11.5,5.4-17.6,6-1.8,5.4-2.6,10.6.9,16.3,4.1,6.6,11.2,8.6,25.1,0l20.2-12.4c24.1-14.8,40.9-14.7,51.5,2.5,11.9,19.3,1.7,48.4-30.4,68.2-25.4,15.6-49.1,16.5-60.1-1.4ZM817.8,394.7c-9.3-15.1-24.7-18.2-37-10.7-12.2,7.5-16.5,22.6-7.2,37.8,9.3,15.1,25.3,18.5,37.2,11.1,12-7.4,16.2-23.1,6.9-38.2ZM882.7,470.4c-5.9-9.6-15.2-8.4-28.8,0l-17.9,11c-4,2.4-9.1,5-14.4,6.7-4.2,9.8-3.6,18,.1,23.9,6.9,11.2,22.4,11.3,41.3-.3,19.8-12.2,26.5-30.5,19.8-41.3Z"/>
      <path class="cls-1" d="M880.7,415.5c-11.5-23.9,3.4-45.8,47.7-73.4-6.8-14.1-18.1-25.5-36-16.8-12.7,6.1-21.2,17.6-27.1,27.5l-13.4-9.2c6.9-11.5,18.6-26.6,36.2-35.1,26.8-12.9,46.7-.5,59.9,26.8l32.4,67.4-15.4,7.4-7.9-12.4-.6.3c-6.3,13.7-15.1,26.7-28.7,33.3-18.4,8.8-37.7,4.1-47.2-15.7ZM948.9,384.8l-14.7-30.5c-34.7,22.1-42.8,37.1-36,51.2,6,12.5,16.9,13.5,27.7,8.3,10.6-5.1,16.9-14.5,23-29Z"/>
      <path class="cls-1" d="M967.2,276.2l16.1-5.6,7.5,16,.6-.2c7.2-14.6,16-27.4,31.8-32.9,24.2-8.5,40.6,3.3,50.9,32.7l25.5,72.9-19.5,6.8-24.6-70.4c-7.5-21.4-17.2-28.3-32.4-23-11.8,4.1-17.8,13-25.3,28.7l29.2,83.3-19.5,6.8-40.3-115Z"/>
      <path class="cls-1" d="M1087.6,196.9c-2-7.8,2.7-14.5,10.5-16.5s15.1,1.5,17.1,9.3c1.9,7.5-2.7,14.5-10.5,16.5s-15.2-1.8-17.1-9.3ZM1100.8,233.1l20-5.2,30.4,118-20,5.2-30.4-118Z"/>
      <path class="cls-1" d="M1170.9,329.1l46.1-104.1-56.1,10.3-3-16.5,81.7-15,2,10.8-46.1,104.1,65.2-12,3,16.5-90.8,16.7-2-10.8Z"/>
      <path class="cls-1" d="M1266.9,290.8c-2.3-26.4,19.3-41.7,70.5-51.9-1.4-15.6-7.9-30.2-27.8-28.4-14,1.2-26.1,9-35,16.2l-9.3-13.4c10.5-8.3,26.8-18.3,46.3-20.1,29.6-2.6,43.9,16,46.6,46.2l6.6,74.5-17,1.5-3-14.4h-.7c-10.7,10.7-23.5,19.8-38.6,21.1-20.3,1.8-36.7-9.5-38.6-31.4ZM1341.6,286.1l-3-33.7c-40.2,8.5-53.1,19.7-51.7,35.2,1.2,13.8,11.1,18.6,23,17.5,11.7-1,20.9-7.6,31.7-19Z"/>
      <path class="cls-1" d="M1396.8,276.1l-1.1-67.4-18.1.3-.3-15.6,19-1.5,1.9-34.2,17.2-.3.6,34.2,33-.5.3,16.8-33,.5,1.1,67.7c.2,14.9,5.2,23.4,19.2,23.2,4.3,0,9.9-1.8,13.8-3.5l4.2,15.5c-6.8,2.4-14.9,4.8-22.5,4.9-25.9.4-35-15.9-35.4-40.1Z"/>
      <path class="cls-1" d="M1479.4,193.1l20.6,1.2-6.9,121.7-20.6-1.2,6.9-121.6ZM1477.8,154.6c.5-8.1,7-12.9,15-12.5,8,.5,13.9,6,13.5,14.1-.4,7.8-7,12.9-15,12.5-8-.5-13.9-6.3-13.5-14.1Z"/>
      <path class="cls-1" d="M1526.8,256.3c5.7-40.3,35.3-59.8,64.8-55.6,29.6,4.2,52.7,31.1,47,71.3-5.6,40-35.2,59.5-64.8,55.3-29.6-4.2-52.7-31.1-47-71ZM1617.5,269.1c3.9-27.7-7.5-48.4-28.3-51.4-20.8-2.9-37.5,13.9-41.3,41.6-3.9,27.7,7.6,48.1,28.3,51s37.4-13.6,41.3-41.3Z"/>
      <path class="cls-1" d="M1683,219.2l16.5,4.3-2.7,17.4.7.2c14.1-8.1,28.6-13.8,44.7-9.6,24.8,6.5,31.8,25.4,24,55.5l-19.5,74.7-20-5.2,18.8-72.1c5.7-22,1.5-33.1-14.1-37.2-12.1-3.1-22,.8-37,9.7l-22.3,85.4-20-5.2,30.7-117.9Z"/>
      <path class="cls-1" d="M1877.2,259.3c9.3-22.9,25.7-33.3,48.3-24.1,6.9,2.8,12.9,7.3,17.2,11.5l-10,12.9c-3.5-3.7-7.6-6.5-11.6-8.1-10.7-4.3-18.9,1-24.9,15.6l-53.2,130.6-19.1-7.8,53.2-130.7ZM1854.1,272l16.6,5.5,42.1,17.2-6.3,15.6-58.3-23.7,5.9-14.5Z"/>
      <path class="cls-1" d="M1899.4,354.5c18.5-36.2,52.9-45,79.5-31.3,26.6,13.6,39.6,46.6,21.1,82.8-18.4,35.9-52.7,44.7-79.3,31.1-26.6-13.6-39.6-46.6-21.2-82.5ZM1981,396.2c12.7-24.9,8.7-48.2-9.9-57.8s-40,.9-52.7,25.8-8.6,48,10.1,57.5c18.7,9.5,39.8-.6,52.5-25.5Z"/>
      <path class="cls-1" d="M2058,370.6l14.4,9.1-10.4,19.7.6.4c15.5-8.5,31.2-10,42.8-2.7,4.6,2.9,7.4,5.5,9.6,9.1l-13,13.2c-2.8-3.4-4.8-5.4-8.9-8-8.7-5.5-23-5.9-41.1,7.1l-42,66-17.4-11.1,65.4-102.8Z"/>
      <path class="cls-1" d="M2103,521.5l18.8-2.9c1.1,17,8.5,33.8,21.5,44.9,16.5,13.9,33.2,14,43.5,1.8,10.8-12.8,5.2-24.6-2.3-39.8l-11.3-23.2c-7.5-14.9-13.7-35.4,1.9-53.9,16.2-19.2,44.9-19.2,67.7,0,14.9,12.6,22.7,30.2,23.9,46.8l-17.2,3.1c-1.6-13.8-7-26.1-18.6-35.9-14.1-11.9-29.4-12.7-38.9-1.4-10.2,12.1-3.1,25.9,3.2,38.4l11.4,22.9c9.3,18.5,13.3,36.8-2.5,55.5-16.8,19.9-46.6,21.9-73-.4-17.6-14.9-26.9-35-28.2-55.8Z"/>
      <path class="cls-1" d="M2216.9,599.9l47.7-47.5-12.8-12.8,11.1-11,14.3,12.7,26-22.4,12.1,12.2-24.2,24.1,23.3,23.4-11.9,11.9-23.3-23.4-48,47.8c-10.6,10.5-13.3,20-3.4,30,3.1,3.1,8.2,5.9,12.1,7.5l-8.2,13.8c-6.5-3.2-13.8-7.4-19.2-12.8-18.3-18.4-12.9-36.2,4.3-53.3Z"/>
      <path class="cls-1" d="M2257.9,649.5c20.3-17.1,45.2-8.1,83,28,12-10.1,20.2-23.8,7.4-39.1-9.1-10.8-22.4-16.2-33.4-19.4l5.6-15.3c12.8,3.8,30.4,11.4,43,26.4,19.1,22.8,12.1,45.1-11.1,64.6l-57.2,48.1-11-13,10-10.7-.4-.5c-14.9-2.7-29.7-7.9-39.4-19.5-13.1-15.6-13.3-35.5,3.5-49.6ZM2304.7,708l25.9-21.8c-30-28.1-46.6-32.2-58.5-22.2-10.6,8.9-8.9,19.7-1.2,28.9,7.6,9,18.2,12.8,33.8,15.1Z"/>
      <path class="cls-1" d="M2414.3,698.6l9.5,14.2-13.6,11.2.4.6c16,3.3,30.5,8.6,39.8,22.5,14.3,21.3,6.9,40.1-19,57.4l-64.2,42.9-11.5-17.1,62-41.4c18.9-12.6,23.1-23.7,14.2-37.1-6.9-10.4-17-14-34.1-17.3l-73.4,49-11.5-17.1,101.3-67.7Z"/>
      <path class="cls-1" d="M2432.6,838c35.2-18,68.4-7,81.1,17.7,6.5,12.6,5.9,23.3,3,36.8l18.2-10.3,41.8-21.4,9.4,18.4-159,81.3-7.8-15.2,12-8.1-.3-.6c-12.7-4.1-25.7-12.1-32.3-25-13.9-27.1-2.2-55.2,33.9-73.7ZM2445.2,928.1l56.9-29.1c3.5-13.5,2.3-23.4-2.3-32.2-8.9-17.3-32.7-22.6-57.4-9.9-26,13.3-36,32-26.3,51,5.1,10,14.5,16.2,29,20.2Z"/>
      <path class="cls-1" d="M2466.6,971.8c24.8-9.4,45.3,7.4,68.9,54,14.7-5.6,26.9-15.8,19.9-34.4-5-13.2-15.7-22.7-25-29.4l10.4-12.5c10.8,7.9,24.9,20.9,31.8,39.2,10.5,27.8-3.6,46.6-31.9,57.3l-69.9,26.4-6-15.9,13-6.8-.2-.6c-13.1-7.5-25.3-17.4-30.7-31.5-7.2-19.1-.8-37.9,19.8-45.6ZM2491.2,1042.5l31.7-11.9c-19-36.5-33.2-45.9-47.8-40.4-13,4.9-14.9,15.7-10.7,26.9,4.2,11,12.9,18.1,26.8,25.5Z"/>
      <path class="cls-1" d="M2596.8,1069.6l4.5,16.4-20.9,7.6.2.7c17.2,4,29.9,13.5,33.5,26.7,1.4,5.2,1.8,9,1.1,13.2l-18.5,1.1c.2-4.4,0-7.2-1.2-11.9-2.7-9.9-13.2-19.8-35.2-22.2l-75.4,20.9-5.5-19.9,117.4-32.5Z"/>
      <path class="cls-1" d="M2557.9,1157c38.9-6.9,67.5,13.3,72.4,40.6,2.5,13.9-1.1,24-7.9,36.1l20.4-4.5,46.2-8.2,3.6,20.3-175.8,31.4-3-16.8,13.9-4.2v-.7c-11.1-7.7-21.2-19-23.7-33.3-5.4-30,14-53.5,54-60.6ZM2543.7,1246.9l62.9-11.2c7.3-11.9,9-21.7,7.2-31.5-3.4-19.2-24.6-31.1-52-26.2-28.8,5.1-43.8,20.1-40,41.1,2,11.1,9.1,19.7,21.9,27.8Z"/>
      <path class="cls-1" d="M2641.1,1295.6l1.9,20.5-121.3,11.2-1.9-20.5,121.3-11.2ZM2679,1288.3c8.1-.7,13.8,5,14.6,13,.7,8-3.9,14.7-12,15.4-7.7.7-13.8-5-14.6-13s4.2-14.7,12-15.4Z"/>
      <path class="cls-1" d="M2535.2,1349.5l95.4,62-1.3-57,16.8-.4,1.9,83.1-11,.2-95.4-62,1.5,66.2-16.8.4-2.1-92.3,11-.2Z"/>
      <path class="cls-1" d="M2557.9,1450.4c26.5,1.8,38.1,25.6,40.2,77.8,15.6,1,31.1-3.1,32.4-23,1-14.1-4.8-27.2-10.5-37.2l14.7-7.1c6.6,11.7,13.9,29.3,12.6,48.8-2.1,29.7-22.6,40.8-52.9,38.7l-74.6-5.2,1.2-17,14.7-.7v-.7c-8.8-12.3-15.7-26.3-14.7-41.4,1.4-20.3,15.1-34.7,37-33.2ZM2550.8,1525l33.8,2.3c-2.1-41.1-11.1-55.5-26.6-56.6-13.8-1-20.1,8-20.9,20-.8,11.7,4.2,21.8,13.8,34.3Z"/>
      <path class="cls-1" d="M2552.2,1580.5l66.6,10.4,2.8-17.9,15.4,2.4-1.8,19,33.4,7.7-2.7,17-33.8-5.3-5.1,32.6-16.6-2.6,5.1-32.6-66.9-10.5c-14.7-2.3-24,1.1-26.2,15-.7,4.3,0,10.1,1.1,14.2l-16,1.5c-1.2-7.1-2.1-15.5-1-23,4-25.6,21.6-31.8,45.6-28Z"/>
      <path class="cls-1" d="M2620.8,1675.7l-4.4,20.1-119-26.2,4.4-20.1,119,26.2ZM2659.1,1680.3c7.9,1.7,11.7,8.9,9.9,16.8-1.7,7.8-8.2,12.8-16.1,11-7.6-1.7-11.7-8.9-9.9-16.8s8.5-12.7,16.1-11Z"/>
      <path class="cls-1" d="M2550.9,1712.4c38.8,12,53.4,44.4,44.5,72.9s-39.1,47-77.9,35c-38.5-11.9-53-44.3-44.2-72.8,8.8-28.5,39.1-47,77.6-35.1ZM2523.8,1800c26.7,8.3,49,.3,55.2-19.7,6.2-20-7.7-39.2-34.4-47.5-26.7-8.3-48.7-.2-54.9,19.8-6.2,20,7.4,39.1,34.1,47.4Z"/>
      <path class="cls-1" d="M2562.5,1872.6l-6.9,15.6-16.8-5.5-.3.6c5.8,15.2,9.1,30.4,2.3,45.7-10.4,23.5-30.2,27.3-58.6,14.8l-70.6-31.2,8.3-18.9,68.2,30.1c20.8,9.2,32.4,6.8,38.9-7.9,5-11.4,2.7-21.9-3.7-38l-80.7-35.7,8.3-18.9,111.5,49.2Z"/>
    </g>
  </g>
  <g>
    <path class="cls-1" d="M1003.5,2467.8h40.8v-98.4h-36v-31.8c21.6-4.2,35.4-9.6,49.8-18.6h37.8v148.8h34.2v41.4h-126.6v-41.4Z"/>
    <path class="cls-1" d="M1247.7,2406c0-12.9,1.2-32.1,1.8-45h-1.2c-4.8,11.4-10.2,22.8-15.6,34.2l-17.4,32.4h100.8v39h-149.4v-36l64.8-111.6h64.2v190.2h-48v-103.2Z"/>
    <path class="cls-1" d="M1347.9,2413.2c0-65.1,28.8-97.8,70.8-97.8s70.8,33,70.8,97.8-28.8,99.6-70.8,99.6-70.8-34.5-70.8-99.6ZM1440.9,2413.2c0-50.4-10.2-58.2-22.2-58.2s-22.2,7.8-22.2,58.2,10.2,60,22.2,60,22.2-9.6,22.2-60Z"/>
    <path class="cls-1" d="M1524.9,2413.2c0-65.1,28.8-97.8,70.8-97.8s70.8,33,70.8,97.8-28.8,99.6-70.8,99.6-70.8-34.5-70.8-99.6ZM1617.9,2413.2c0-50.4-10.2-58.2-22.2-58.2s-22.2,7.8-22.2,58.2,10.2,60,22.2,60,22.2-9.6,22.2-60Z"/>
    <path class="cls-1" d="M1711.5,2467.8h40.8v-98.4h-36v-31.8c21.6-4.2,35.4-9.6,49.8-18.6h37.8v148.8h34.2v41.4h-126.6v-41.4Z"/>
  </g>
</svg>